<?xml version="1.0" encoding="utf-8"?>
<!-- Generator: Adobe Illustrator 23.0.1, SVG Export Plug-In . SVG Version: 6.00 Build 0)  -->
<svg version="1.1"
	 id="svg12" xmlns:cc="http://creativecommons.org/ns#" xmlns:dc="http://purl.org/dc/elements/1.1/" xmlns:rdf="http://www.w3.org/1999/02/22-rdf-syntax-ns#" xmlns:svg="http://www.w3.org/2000/svg"
	 xmlns="http://www.w3.org/2000/svg" xmlns:xlink="http://www.w3.org/1999/xlink" x="0px" y="0px" viewBox="0 0 325.4 152"
	 style="enable-background:new 0 0 325.4 152;" xml:space="preserve">
<style type="text/css">
	.st0{fill-rule:evenodd;clip-rule:evenodd;fill:#2C2C2B;}
	.st1{fill-rule:evenodd;clip-rule:evenodd;fill:#E8732C;}
</style>
<g id="g10">
	<g id="g8">
		<path id="path2" class="st0" d="M16.1,132.7c-0.1,0.5-0.4,1.5-0.7,2.5h-3.8c0.2-0.6,0.5-1.3,0.6-2c0.2-1.2-0.3-1.6-1.5-1.6
			c-1.7,0-2.6,1-3.5,3.2c-2.3,6.4-3.2,8.8-3.2,9.1c-0.2,1.2,0.3,1.7,1.5,1.7c1.6,0,2.6-0.8,3.8-4.3h3.8l-0.3,0.9
			c-1.3,3.5-3.7,6.4-8.4,6.4c-3.8,0-4.7-1.8-4.4-4.1c0.1-0.7,0.3-1.5,3.1-9.2c1.6-4.5,4.5-6.6,8.6-6.6
			C15,128.6,16.4,130.1,16.1,132.7z M276.6,129h3.8l-7,19.1h-3.8L276.6,129z M259.5,145.4h2.2c1.7,0,3.2-1.7,3.6-4
			c0.2-1.2-0.4-1.9-1.5-1.9h-2.1L259.5,145.4z M265.5,129l-2.8,7.6h3.2c2.6,0,3.7,1.9,3.4,4.2c-0.4,2.6-3,7.4-7.3,7.4h-7.3l7-19.1
			H265.5z M240.2,129h6l-1.9,12.4l7.2-12.4h6l-7,19.1H247l6.3-17.3l-10.1,17.3h-2.7l2.5-17.3H243l-6.2,17.3h-3.6L240.2,129z
			 M225.8,129h10.6l-1.1,3.1h-6.8l-1.6,4.3h6.2l-1,2.9h-6.2l-2.1,5.9h6.8l-1.1,2.9h-10.6L225.8,129z M220.8,132h-4.3l-5.9,16.1h-3.8
			l5.9-16.1h-4.4l1.1-3.1H222L220.8,132z M204.6,132.7c-0.1,0.5-0.4,1.5-0.8,2.5h-3.8c0.2-0.6,0.5-1.3,0.6-2
			c0.2-1.2-0.3-1.6-1.5-1.6c-1.7,0-2.6,1-3.5,3.2c-2.3,6.4-3.2,8.8-3.2,9.1c-0.2,1.2,0.3,1.7,1.5,1.7c1.6,0,2.6-0.8,3.8-4.3h3.8
			l-0.3,0.9c-1.3,3.5-3.6,6.4-8.4,6.4c-3.8,0-4.7-1.8-4.4-4.1c0.1-0.7,0.3-1.5,3.1-9.2c1.6-4.5,4.5-6.6,8.6-6.6
			C203.5,128.6,205,130.1,204.6,132.7z M183.3,148.1h-3.6l2.6-7.2c1.2-3.2,2-5,2.9-6.6l-10.6,13.9h-4.1l7-19.1h3.6l-2.6,7.2
			c-1,2.7-2.1,5.2-3,6.7l10.6-13.9h4.1L183.3,148.1z M171.8,132.7c-0.1,0.5-0.4,1.5-0.7,2.5h-3.8c0.2-0.6,0.5-1.3,0.6-2
			c0.2-1.2-0.3-1.6-1.5-1.6c-1.7,0-2.6,1-3.5,3.2c-2.3,6.4-3.2,8.8-3.2,9.1c-0.2,1.2,0.3,1.7,1.5,1.7c1.6,0,2.6-0.8,3.8-4.3h3.8
			l-0.3,0.9c-1.3,3.5-3.7,6.4-8.4,6.4c-3.8,0-4.7-1.8-4.4-4.1c0.1-0.7,0.3-1.5,3.1-9.2c1.6-4.5,4.5-6.6,8.6-6.6
			C170.7,128.6,172.2,130.1,171.8,132.7z M139.2,129h10.6l-1.1,3.1h-6.8l-1.6,4.3h6.3l-1,2.9h-6.3l-2.1,5.9h6.9l-1.1,2.9h-10.6
			L139.2,129z M128.1,148.1h-3.6l2.6-7.2c1.2-3.2,2-5,2.9-6.6l-10.6,13.9h-4.1l7-19.1h3.6l-2.6,7.2c-1,2.7-2.1,5.2-3,6.7L131,129
			h4.1L128.1,148.1z M106.3,129h3.8l-3,8.3l7.6-8.3h4.3l-8.1,8.3l1.2,10.8h-4.2l-0.5-7.6l-2.2,1.9l-2.1,5.7h-3.8L106.3,129z
			 M100.6,132.7c-0.1,0.5-0.4,1.5-0.7,2.5H96c0.2-0.6,0.5-1.3,0.6-2c0.2-1.2-0.3-1.6-1.5-1.6c-1.7,0-2.6,1-3.5,3.2
			c-2.3,6.4-3.2,8.8-3.2,9.1c-0.2,1.2,0.3,1.7,1.5,1.7c1.6,0,2.6-0.8,3.8-4.3h3.8l-0.3,0.9c-1.3,3.5-3.7,6.4-8.4,6.4
			c-3.8,0-4.7-1.8-4.4-4.1c0.1-0.7,0.3-1.5,3.1-9.2c1.6-4.5,4.5-6.6,8.6-6.6C99.5,128.6,100.9,130.1,100.6,132.7z M77.2,131.9
			l-1.6,4.3c-1.6,4.4-3,6.6-5.1,9h5.6l4.8-13.3H77.2z M72.4,134.9l2.2-6h11.3l-5.9,16.2h1.2l-2.5,6.8h-3.6l1.4-3.9h-8.2l-1.4,3.9
			h-3.6l2.5-6.8h1.2C69.2,142.4,70.5,140.2,72.4,134.9z M59.3,140.3l1.7-8.9h-0.1l-4.9,8.9H59.3z M59.4,129h5.1l-2.6,19.1h-4.1
			l0.9-5h-4.3l-3,5h-4.1L59.4,129z M51.3,129l-7,19.1h-3.8l5.9-16.2h-4l-2.7,7.4c-2.3,6.4-4.5,9.2-7.6,9.2c-0.9,0-1.6-0.1-2.2-0.2
			l1-2.7c0.2,0.1,0.7,0.1,1.2,0.1c1.1,0,1.9-0.6,4.4-7.5l3.3-9.2H51.3z M21.8,129h3.8l-3,8.3l7.6-8.3h4.3l-8.1,8.3l1.2,10.8h-4.2
			l-0.5-7.6l-2.2,1.9l-2.1,5.7h-3.8L21.8,129z"/>
		<path id="path4" class="st1" d="M299.9,72h-55.5l81.1-67.2L299.9,72z"/>
		<path id="path6" class="st0" d="M121.2,0H52.6L10.9,113.7h38.2C60.6,82,73.1,49.1,77.8,36H108L121.2,0z M241,36h38L323.1,0h-79.6
			c-3.9,0-8.9-0.2-12.7,0.2c-17.6,1.8-23.1,23.2-31.3,46.2c-7.5,20.9-15.5,43.2-15.5,43.2c-1.9,5.5-1.1,11.6,2.3,16.3
			c3.4,4.8,8.8,7.6,14.6,7.6H285l13.2-35.9h-72C233.7,56.2,234.7,54,241,36z M212,0h-86.2L112.7,36H134l-28.8,77.7h38.2L172.2,36
			h25.4L212,0z"/>
	</g>
</g>
</svg>
