<svg xmlns="http://www.w3.org/2000/svg" xmlns:xlink="http://www.w3.org/1999/xlink" width="11.03" height="11.031" viewBox="0 0 11.03 11.031">
  <metadata><?xpacket begin="﻿" id="W5M0MpCehiHzreSzNTczkc9d"?>
<x:xmpmeta xmlns:x="adobe:ns:meta/" x:xmptk="Adobe XMP Core 5.6-c138 79.159824, 2016/09/14-01:09:01        ">
   <rdf:RDF xmlns:rdf="http://www.w3.org/1999/02/22-rdf-syntax-ns#">
      <rdf:Description rdf:about=""/>
   </rdf:RDF>
</x:xmpmeta>
                                                                                                    
                                                                                                    
                                                                                                    
                                                                                                    
                                                                                                    
                                                                                                    
                                                                                                    
                                                                                                    
                                                                                                    
                                                                                                    
                                                                                                    
                                                                                                    
                                                                                                    
                                                                                                    
                                                                                                    
                                                                                                    
                                                                                                    
                                                                                                    
                                                                                                    
                                                                                                    
                           
<?xpacket end="w"?></metadata>
<defs>
    <style>
      .cls-1 {
        fill-rule: evenodd;
        filter: url(#filter);
      }
    </style>
    <filter id="filter" x="1156" y="63.969" width="11.03" height="11.031" filterUnits="userSpaceOnUse">
      <feFlood result="flood" flood-color="#e76f17"/>
      <feComposite result="composite" operator="in" in2="SourceGraphic"/>
      <feBlend result="blend" in2="SourceGraphic"/>
    </filter>
  </defs>
  <path id="Иконка" class="cls-1" d="M1165.26,70.867a0.855,0.855,0,0,0-1.29,0c-0.3.3-.61,0.6-0.9,0.9a0.179,0.179,0,0,1-.25.045c-0.2-.106-0.41-0.193-0.59-0.31a9.273,9.273,0,0,1-2.26-2.055,5.389,5.389,0,0,1-.81-1.3,0.187,0.187,0,0,1,.05-0.239c0.3-.291.59-0.59,0.89-0.89a0.864,0.864,0,0,0,0-1.322c-0.24-.238-0.48-0.472-0.71-0.711-0.25-.243-0.49-0.489-0.73-0.73a0.859,0.859,0,0,0-1.29,0c-0.31.3-.6,0.607-0.91,0.9a1.456,1.456,0,0,0-.46.993,4.148,4.148,0,0,0,.32,1.81,11.173,11.173,0,0,0,1.95,3.25,12.19,12.19,0,0,0,4,3.129,5.817,5.817,0,0,0,2.22.645,1.623,1.623,0,0,0,1.39-.531c0.26-.289.55-0.553,0.83-0.828a0.871,0.871,0,0,0,0-1.316C1166.23,71.831,1165.74,71.35,1165.26,70.867Z" transform="translate(-1156 -63.969)"/>
</svg>
